<svg fill="none" height="24" viewBox="0 0 24 24" width="24" xmlns="http://www.w3.org/2000/svg" xmlns:xlink="http://www.w3.org/1999/xlink"><mask id="a" height="24" maskUnits="userSpaceOnUse" width="24" x="0" y="0"><path d="m.000061 0h24v24h-24z" fill="#d9d9d9"/></mask><g mask="url(#a)"><path d="m12.0001 20.3249c-.2334 0-.4709-.0417-.7125-.125-.2417-.0833-.4542-.2167-.6375-.4l-1.72504-1.575c-1.76667-1.6167-3.3625-3.2208-4.7875-4.8125s-2.1375-3.3458-2.1375-5.2625c0-1.56666.525-2.875 1.575-3.925s2.35833-1.575 3.925-1.575c.88333 0 1.71667.1875 2.50004.5625.7833.375 1.45.8875 2 1.5375.55-.65 1.2166-1.1625 2-1.5375.7833-.375 1.6166-.5625 2.5-.5625 1.5666 0 2.875.525 3.925 1.575s1.575 2.35834 1.575 3.925c0 1.9167-.7084 3.675-2.125 5.275-1.4167 1.6-3.025 3.2083-4.825 4.825l-1.7 1.55c-.1834.1833-.3959.3167-.6375.4-.2417.0833-.4792.125-.7125.125zm-.95-13.575c-.4834-.68333-1-1.20416-1.55004-1.5625-.55-.35833-1.21667-.5375-2-.5375-1 0-1.83333.33334-2.5 1-.66667.66667-1 1.5-1 2.5 0 .86667.30833 1.7875.925 2.7625s1.35417 1.9208 2.2125 2.8375 1.74167 1.775 2.65 2.575c.90834.8 1.64584 1.4583 2.21254 1.975.5666-.5167 1.3041-1.175 2.2125-1.975.9083-.8 1.7916-1.6583 2.65-2.575.8583-.9167 1.5958-1.8625 2.2125-2.8375.6166-.975.925-1.89583.925-2.7625 0-1-.3334-1.83333-1-2.5-.6667-.66666-1.5-1-2.5-1-.7834 0-1.45.17917-2 .5375-.55.35834-1.0667.87917-1.55 1.5625-.1167.16667-.2584.29167-.425.375-.1667.08334-.3417.125-.525.125-.1834 0-.3584-.04166-.525-.125-.1667-.08333-.3084-.20833-.425-.375z" fill="#000"/></g></svg>