<svg width="24" height="24" viewBox="0 0 24 24" fill="none" xmlns="http://www.w3.org/2000/svg">
<mask id="mask0_567_203" style="mask-type:alpha" maskUnits="userSpaceOnUse" x="0" y="0" width="24" height="24">
<rect x="6.10352e-05" width="24" height="24" fill="#D9D9D9"/>
</mask>
<g mask="url(#mask0_567_203)">
<path d="M12.0001 12C10.9001 12 9.95839 11.6083 9.17506 10.825C8.39173 10.0417 8.00006 9.1 8.00006 8C8.00006 6.9 8.39173 5.95833 9.17506 5.175C9.95839 4.39167 10.9001 4 12.0001 4C13.1001 4 14.0417 4.39167 14.8251 5.175C15.6084 5.95833 16.0001 6.9 16.0001 8C16.0001 9.1 15.6084 10.0417 14.8251 10.825C14.0417 11.6083 13.1001 12 12.0001 12ZM4.00006 18V17.2C4.00006 16.6333 4.14589 16.1125 4.43756 15.6375C4.72923 15.1625 5.11673 14.8 5.60006 14.55C6.63339 14.0333 7.68339 13.6458 8.75006 13.3875C9.81673 13.1292 10.9001 13 12.0001 13C13.1001 13 14.1834 13.1292 15.2501 13.3875C16.3167 13.6458 17.3667 14.0333 18.4001 14.55C18.8834 14.8 19.2709 15.1625 19.5626 15.6375C19.8542 16.1125 20.0001 16.6333 20.0001 17.2V18C20.0001 18.55 19.8042 19.0208 19.4126 19.4125C19.0209 19.8042 18.5501 20 18.0001 20H6.00006C5.45006 20 4.97923 19.8042 4.58756 19.4125C4.19589 19.0208 4.00006 18.55 4.00006 18ZM6.00006 18H18.0001V17.2C18.0001 17.0167 17.9542 16.85 17.8626 16.7C17.7709 16.55 17.6501 16.4333 17.5001 16.35C16.6001 15.9 15.6917 15.5625 14.7751 15.3375C13.8584 15.1125 12.9334 15 12.0001 15C11.0667 15 10.1417 15.1125 9.22506 15.3375C8.30839 15.5625 7.40006 15.9 6.50006 16.35C6.35006 16.4333 6.22923 16.55 6.13756 16.7C6.04589 16.85 6.00006 17.0167 6.00006 17.2V18ZM12.0001 10C12.5501 10 13.0209 9.80417 13.4126 9.4125C13.8042 9.02083 14.0001 8.55 14.0001 8C14.0001 7.45 13.8042 6.97917 13.4126 6.5875C13.0209 6.19583 12.5501 6 12.0001 6C11.4501 6 10.9792 6.19583 10.5876 6.5875C10.1959 6.97917 10.0001 7.45 10.0001 8C10.0001 8.55 10.1959 9.02083 10.5876 9.4125C10.9792 9.80417 11.4501 10 12.0001 10Z" fill="black"/>
</g>
</svg>
