<svg width="24" height="24" viewBox="0 0 24 24" fill="none" xmlns="http://www.w3.org/2000/svg">
<mask id="mask0_3_4933" style="mask-type:alpha" maskUnits="userSpaceOnUse" x="0" y="0" width="24" height="24">
<rect x="6.10352e-05" width="24" height="24" fill="#D9D9D9"/>
</mask>
<g mask="url(#mask0_3_4933)">
<path d="M7.00006 22C6.45006 22 5.97923 21.8042 5.58756 21.4125C5.19589 21.0208 5.00006 20.55 5.00006 20C5.00006 19.45 5.19589 18.9792 5.58756 18.5875C5.97923 18.1958 6.45006 18 7.00006 18C7.55006 18 8.02089 18.1958 8.41256 18.5875C8.80423 18.9792 9.00006 19.45 9.00006 20C9.00006 20.55 8.80423 21.0208 8.41256 21.4125C8.02089 21.8042 7.55006 22 7.00006 22ZM17.0001 22C16.4501 22 15.9792 21.8042 15.5876 21.4125C15.1959 21.0208 15.0001 20.55 15.0001 20C15.0001 19.45 15.1959 18.9792 15.5876 18.5875C15.9792 18.1958 16.4501 18 17.0001 18C17.5501 18 18.0209 18.1958 18.4126 18.5875C18.8042 18.9792 19.0001 19.45 19.0001 20C19.0001 20.55 18.8042 21.0208 18.4126 21.4125C18.0209 21.8042 17.5501 22 17.0001 22ZM6.15006 6L8.55006 11H15.5501L18.3001 6H6.15006ZM5.20006 4H19.9501C20.3334 4 20.6251 4.17083 20.8251 4.5125C21.0251 4.85417 21.0334 5.2 20.8501 5.55L17.3001 11.95C17.1167 12.2833 16.8709 12.5417 16.5626 12.725C16.2542 12.9083 15.9167 13 15.5501 13H8.10006L7.00006 15H18.0001C18.2834 15 18.5209 15.0958 18.7126 15.2875C18.9042 15.4792 19.0001 15.7167 19.0001 16C19.0001 16.2833 18.9042 16.5208 18.7126 16.7125C18.5209 16.9042 18.2834 17 18.0001 17H7.00006C6.25006 17 5.68339 16.6708 5.30006 16.0125C4.91673 15.3542 4.90006 14.7 5.25006 14.05L6.60006 11.6L3.00006 4H2.00006C1.71673 4 1.47923 3.90417 1.28756 3.7125C1.09589 3.52083 1.00006 3.28333 1.00006 3C1.00006 2.71667 1.09589 2.47917 1.28756 2.2875C1.47923 2.09583 1.71673 2 2.00006 2H3.62506C3.80839 2 3.98339 2.05 4.15006 2.15C4.31673 2.25 4.44173 2.39167 4.52506 2.575L5.20006 4Z" fill="black"/>
</g>
</svg>
